<?xml version="1.0" encoding="UTF-8"?><svg id="Layer_2" xmlns="http://www.w3.org/2000/svg" viewBox="0 0 103.71 103.71"><defs><style>.cls-1{fill:#221f20;}.cls-1,.cls-2{stroke-width:0px;}.cls-2{fill:#fff;}</style></defs><g id="Calque_1"><circle class="cls-1" cx="51.86" cy="51.86" r="51.86"/><path class="cls-2" d="m79.45,34.31c-.09.19-.22.37-.38.52-.62.59-12.32,11.64-18.47,17.4l18.47,17.38c.08.07.14.15.2.23.24-.49.38-1.04.38-1.62v-32.73c0-.41-.07-.81-.2-1.18Z"/><path class="cls-2" d="m24.13,34.79c-.04.23-.07.46-.07.7v32.73c0,.24.02.48.07.7l18.82-16.72c-6.17-5.68-17.63-16.31-18.82-17.42Z"/><path class="cls-2" d="m48.88,52.69c2.18,1.97,3.65,1.97,5.82.02,2.46-2.21,21.66-20.35,21.86-20.54.09-.09.19-.16.3-.23-.28-.07-.57-.11-.86-.11H27.71c-.41,0-.81.07-1.18.2.63.59,19.39,17.99,22.35,20.65Z"/><path class="cls-2" d="m57.92,54.72c-.33.3-.59.55-.77.7-1.77,1.59-3.56,2.39-5.34,2.39s-3.59-.8-5.37-2.41c-.2-.18-.46-.42-.78-.71l-19.12,16.99c.37.13.77.2,1.18.2h48.29s.09,0,.14,0l-18.22-17.14Z"/></g></svg>