<?xml version="1.0" encoding="UTF-8"?><svg id="Layer_2" xmlns="http://www.w3.org/2000/svg" viewBox="0 0 111.11 111.11"><defs><style>.cls-1{fill:#fff;}.cls-1,.cls-2{stroke-width:0px;}.cls-2{fill:#231f20;}</style></defs><g id="Calque_1"><circle class="cls-2" cx="55.55" cy="55.55" r="55.55"/><path class="cls-1" d="m75.76,74.6l-10.55-7.86h-.06c-.36-.28-.88-.45-1.54-.53-.93-.1-1.78.12-2.55.67l-3.69,3.03c-.09.07-.22.12-.4.16-.18.04-.31.06-.39.05l-.71-.22c-.48-.15-1.15-.51-2.01-1.07-.86-.57-1.92-1.42-3.18-2.56-1.26-1.14-2.66-2.7-4.22-4.68-1.6-1.94-2.82-3.64-3.65-5.08-.83-1.45-1.43-2.66-1.79-3.65-.43-1.11-.68-2.08-.75-2.91.01-.12.06-.26.13-.43.08-.17.16-.29.25-.36l3.17-2.55c.56-.45.96-1.04,1.19-1.76.24-.72.21-1.41-.07-2.07l-4.97-12.52c-.23-.46-.52-.85-.88-1.19-.36-.33-.79-.53-1.3-.58-.7-.08-1.35.13-1.96.62l-8.6,6.93c-.43.31-.81.73-1.14,1.27-.33.53-.57,1.07-.7,1.61,0,.08-.07.47-.18,1.16-.11.7-.14,1.67-.08,2.91.06,1.25.27,2.75.64,4.5.36,1.75.98,3.73,1.84,5.92.87,2.2,2.06,4.62,3.59,7.26,1.53,2.64,3.51,5.45,5.94,8.43,3.05,3.83,5.99,6.9,8.81,9.21,2.82,2.31,5.38,4.09,7.66,5.34,2.29,1.25,4.24,2.09,5.87,2.52,1.63.43,2.81.69,3.55.76.31.03.57.05.76.05.2,0,.31,0,.35,0,.55-.02,1.13-.14,1.72-.35.59-.21,1.09-.49,1.48-.84l8.59-6.87c.73-.59,1.09-1.34,1.07-2.25-.07-.8-.49-1.49-1.25-2.08Z"/><path class="cls-1" d="m63.23,59.27c.19.25.46.41.77.44l2.7.28c.57.06,1.09-.34,1.19-.9.68-3.94-.36-7.98-2.86-11.08-2.53-3.13-6.29-5.01-10.34-5.15-.58-.02-1.07.41-1.13.99l-.26,2.7c-.03.29.06.57.24.79.01.01.02.03.04.04.2.23.49.36.8.37,2.67.04,5.16,1.26,6.83,3.33,1.66,2.05,2.32,4.72,1.81,7.33-.06.3.01.62.2.86Z"/><path class="cls-1" d="m72.63,60.26c.19.23.45.38.75.41l2.7.28c.59.06,1.12-.36,1.2-.95.82-6.46-.97-12.81-5.05-17.86-4.12-5.11-9.99-8.21-16.55-8.74-.6-.05-1.12.39-1.18.99l-.26,2.7c-.03.29.06.57.24.79,0,0,0,.01.01.02.19.23.46.37.75.39,5.22.41,9.9,2.87,13.17,6.93,3.25,4.03,4.67,9.08,4,14.23-.04.29.04.59.23.82Z"/><path class="cls-1" d="m79.88,36.08c-5.71-7.08-14.22-11.42-23.34-11.89-.59-.03-1.09.41-1.15.99l-.26,2.7c-.03.29.06.57.24.79,0,0,.02.02.02.03.2.23.48.36.78.38,7.78.37,15.02,4.04,19.89,10.08,4.78,5.93,6.85,13.66,5.69,21.21-.05.3.03.6.22.84.19.24.46.39.76.42l2.7.28c.58.06,1.11-.35,1.2-.93,1.33-8.86-1.13-17.94-6.73-24.89Z"/></g></svg>